<?xml version="1.0" encoding="UTF-8" standalone="no"?>
<!DOCTYPE svg PUBLIC "-//W3C//DTD SVG 1.1//EN"
 "http://www.w3.org/Graphics/SVG/1.1/DTD/svg11.dtd">
<!-- Generated by graphviz version 15.1.0 (20260618.0150)
 -->
<!-- Title: brainstorming Pages: 1 -->
<svg width="276pt" height="865pt"
 viewBox="0.00 0.00 276.00 865.00" xmlns="http://www.w3.org/2000/svg" xmlns:xlink="http://www.w3.org/1999/xlink">
<g id="graph0" class="graph" transform="scale(1 1) rotate(0) translate(4 860.75)">
<title>brainstorming</title>
<polygon fill="white" stroke="none" points="-4,4 -4,-860.75 272.29,-860.75 272.29,4 -4,4"/>
<!-- Explore project context -->
<g id="node1" class="node">
<title>Explore project context</title>
<polygon fill="none" stroke="black" points="205.9,-856.75 62.4,-856.75 62.4,-820.75 205.9,-820.75 205.9,-856.75"/>
<text xml:space="preserve" text-anchor="middle" x="134.15" y="-833.7" font-family="Times New Roman,serif" font-size="14.00">Explore project context</text>
</g>
<!-- Ask clarifying questions -->
<g id="node2" class="node">
<title>Ask clarifying questions</title>
<polygon fill="none" stroke="black" points="208.52,-783.75 59.77,-783.75 59.77,-747.75 208.52,-747.75 208.52,-783.75"/>
<text xml:space="preserve" text-anchor="middle" x="134.15" y="-760.7" font-family="Times New Roman,serif" font-size="14.00">Ask clarifying questions</text>
</g>
<!-- Explore project context&#45;&gt;Ask clarifying questions -->
<g id="edge1" class="edge">
<title>Explore project context&#45;&gt;Ask clarifying questions</title>
<path fill="none" stroke="black" d="M134.15,-820.57C134.15,-812.98 134.15,-803.85 134.15,-795.29"/>
<polygon fill="black" stroke="black" points="137.65,-795.3 134.15,-785.3 130.65,-795.3 137.65,-795.3"/>
</g>
<!-- Propose 2&#45;3 approaches -->
<g id="node3" class="node">
<title>Propose 2&#45;3 approaches</title>
<polygon fill="none" stroke="black" points="207.02,-710.75 61.27,-710.75 61.27,-674.75 207.02,-674.75 207.02,-710.75"/>
<text xml:space="preserve" text-anchor="middle" x="134.15" y="-687.7" font-family="Times New Roman,serif" font-size="14.00">Propose 2&#45;3 approaches</text>
</g>
<!-- Ask clarifying questions&#45;&gt;Propose 2&#45;3 approaches -->
<g id="edge2" class="edge">
<title>Ask clarifying questions&#45;&gt;Propose 2&#45;3 approaches</title>
<path fill="none" stroke="black" d="M134.15,-747.57C134.15,-739.98 134.15,-730.85 134.15,-722.29"/>
<polygon fill="black" stroke="black" points="137.65,-722.3 134.15,-712.3 130.65,-722.3 137.65,-722.3"/>
</g>
<!-- Present design sections -->
<g id="node4" class="node">
<title>Present design sections</title>
<polygon fill="none" stroke="black" points="205.15,-637.75 63.15,-637.75 63.15,-601.75 205.15,-601.75 205.15,-637.75"/>
<text xml:space="preserve" text-anchor="middle" x="134.15" y="-614.7" font-family="Times New Roman,serif" font-size="14.00">Present design sections</text>
</g>
<!-- Propose 2&#45;3 approaches&#45;&gt;Present design sections -->
<g id="edge3" class="edge">
<title>Propose 2&#45;3 approaches&#45;&gt;Present design sections</title>
<path fill="none" stroke="black" d="M134.15,-674.57C134.15,-666.98 134.15,-657.85 134.15,-649.29"/>
<polygon fill="black" stroke="black" points="137.65,-649.3 134.15,-639.3 130.65,-649.3 137.65,-649.3"/>
</g>
<!-- User approves design? -->
<g id="node5" class="node">
<title>User approves design?</title>
<polygon fill="none" stroke="black" points="134.15,-549.25 0,-531.25 134.15,-513.25 268.29,-531.25 134.15,-549.25"/>
<text xml:space="preserve" text-anchor="middle" x="134.15" y="-526.2" font-family="Times New Roman,serif" font-size="14.00">User approves design?</text>
</g>
<!-- Present design sections&#45;&gt;User approves design? -->
<g id="edge4" class="edge">
<title>Present design sections&#45;&gt;User approves design?</title>
<path fill="none" stroke="black" d="M132.95,-601.32C132.62,-595.71 132.31,-589.47 132.15,-583.75 131.94,-576.42 131.94,-574.58 132.15,-567.25 132.21,-565.15 132.29,-562.99 132.38,-560.8"/>
<polygon fill="black" stroke="black" points="135.87,-561.01 132.9,-550.85 128.88,-560.65 135.87,-561.01"/>
</g>
<!-- User approves design?&#45;&gt;Present design sections -->
<g id="edge5" class="edge">
<title>User approves design?&#45;&gt;Present design sections</title>
<path fill="none" stroke="black" d="M134.15,-549.6C134.15,-561.32 134.15,-577.04 134.15,-590.54"/>
<polygon fill="black" stroke="black" points="130.65,-590.15 134.15,-600.15 137.65,-590.15 130.65,-590.15"/>
<text xml:space="preserve" text-anchor="middle" x="160.77" y="-570.45" font-family="Times New Roman,serif" font-size="14.00">no, revise</text>
</g>
<!-- Write design doc -->
<g id="node6" class="node">
<title>Write design doc</title>
<polygon fill="none" stroke="black" points="188.65,-460.75 79.65,-460.75 79.65,-424.75 188.65,-424.75 188.65,-460.75"/>
<text xml:space="preserve" text-anchor="middle" x="134.15" y="-437.7" font-family="Times New Roman,serif" font-size="14.00">Write design doc</text>
</g>
<!-- User approves design?&#45;&gt;Write design doc -->
<g id="edge6" class="edge">
<title>User approves design?&#45;&gt;Write design doc</title>
<path fill="none" stroke="black" d="M134.15,-513.16C134.15,-501.51 134.15,-485.8 134.15,-472.27"/>
<polygon fill="black" stroke="black" points="137.65,-472.62 134.15,-462.62 130.65,-472.62 137.65,-472.62"/>
<text xml:space="preserve" text-anchor="middle" x="143.15" y="-481.95" font-family="Times New Roman,serif" font-size="14.00">yes</text>
</g>
<!-- Spec self&#45;review\n(fix inline) -->
<g id="node7" class="node">
<title>Spec self&#45;review\n(fix inline)</title>
<polygon fill="none" stroke="black" points="143.52,-387.75 36.77,-387.75 36.77,-346.75 143.52,-346.75 143.52,-387.75"/>
<text xml:space="preserve" text-anchor="middle" x="90.15" y="-370.45" font-family="Times New Roman,serif" font-size="14.00">Spec self&#45;review</text>
<text xml:space="preserve" text-anchor="middle" x="90.15" y="-353.95" font-family="Times New Roman,serif" font-size="14.00">(fix inline)</text>
</g>
<!-- Write design doc&#45;&gt;Spec self&#45;review\n(fix inline) -->
<g id="edge7" class="edge">
<title>Write design doc&#45;&gt;Spec self&#45;review\n(fix inline)</title>
<path fill="none" stroke="black" d="M123.72,-424.33C118.99,-416.44 113.27,-406.88 107.9,-397.91"/>
<polygon fill="black" stroke="black" points="110.97,-396.22 102.83,-389.44 104.96,-399.82 110.97,-396.22"/>
</g>
<!-- User reviews spec? -->
<g id="node8" class="node">
<title>User reviews spec?</title>
<polygon fill="none" stroke="black" points="134.15,-309.75 17.37,-291.75 134.15,-273.75 250.92,-291.75 134.15,-309.75"/>
<text xml:space="preserve" text-anchor="middle" x="134.15" y="-286.7" font-family="Times New Roman,serif" font-size="14.00">User reviews spec?</text>
</g>
<!-- Spec self&#45;review\n(fix inline)&#45;&gt;User reviews spec? -->
<g id="edge8" class="edge">
<title>Spec self&#45;review\n(fix inline)&#45;&gt;User reviews spec?</title>
<path fill="none" stroke="black" d="M101.94,-346.56C107.12,-337.91 113.26,-327.64 118.79,-318.4"/>
<polygon fill="black" stroke="black" points="121.78,-320.23 123.91,-309.85 115.77,-316.63 121.78,-320.23"/>
</g>
<!-- User reviews spec?&#45;&gt;Write design doc -->
<g id="edge9" class="edge">
<title>User reviews spec?&#45;&gt;Write design doc</title>
<path fill="none" stroke="black" d="M141.07,-308.95C145.19,-319.5 150.02,-333.68 152.15,-346.75 155.06,-364.74 155.06,-369.77 152.15,-387.75 150.73,-396.47 148.11,-405.68 145.3,-413.98"/>
<polygon fill="black" stroke="black" points="142.08,-412.59 141.96,-423.18 148.66,-414.98 142.08,-412.59"/>
<text xml:space="preserve" text-anchor="middle" x="203.83" y="-362.2" font-family="Times New Roman,serif" font-size="14.00">changes requested</text>
</g>
<!-- Invoke writing&#45;plans skill -->
<g id="node9" class="node">
<title>Invoke writing&#45;plans skill</title>
<ellipse fill="none" stroke="black" cx="134.15" cy="-110.63" rx="106.63" ry="106.63"/>
<ellipse fill="none" stroke="black" cx="134.15" cy="-110.63" rx="110.63" ry="110.63"/>
<text xml:space="preserve" text-anchor="middle" x="134.15" y="-105.58" font-family="Times New Roman,serif" font-size="14.00">Invoke writing&#45;plans skill</text>
</g>
<!-- User reviews spec?&#45;&gt;Invoke writing&#45;plans skill -->
<g id="edge10" class="edge">
<title>User reviews spec?&#45;&gt;Invoke writing&#45;plans skill</title>
<path fill="none" stroke="black" d="M134.15,-273.25C134.15,-262.81 134.15,-248.53 134.15,-232.75"/>
<polygon fill="black" stroke="black" points="137.65,-233.13 134.15,-223.13 130.65,-233.13 137.65,-233.13"/>
<text xml:space="preserve" text-anchor="middle" x="159.27" y="-242.45" font-family="Times New Roman,serif" font-size="14.00">approved</text>
</g>
</g>
</svg>
